<svg xmlns="http://www.w3.org/2000/svg" xmlns:xlink="http://www.w3.org/1999/xlink" width="1000" zoomAndPan="magnify" viewBox="0 0 750 749.999995" height="1000" preserveAspectRatio="xMidYMid meet" version="1.0"><defs><clipPath id="ae43fabb7a"><path d="M 2 0 L 748 0 L 748 737.816406 L 2 737.816406 Z M 2 0 " clip-rule="nonzero"/></clipPath></defs><path fill="#000000" d="M 288.09375 499.75 L 309.023438 499.75 L 294.214844 514.535156 L 344.738281 565.050781 L 359.523438 550.246094 L 359.523438 571.171875 L 430.953125 571.171875 L 430.953125 550.246094 L 445.75 565.050781 L 496.273438 514.535156 L 481.464844 499.75 L 502.378906 499.75 L 502.378906 428.332031 L 481.453125 428.332031 L 496.261719 413.546875 L 445.738281 363.03125 L 430.953125 377.828125 L 430.953125 356.914062 L 359.523438 356.914062 L 359.523438 377.839844 L 344.726562 363.03125 L 294.203125 413.546875 L 309.011719 428.332031 L 288.09375 428.332031 Z M 311.90625 451.960938 C 320.371094 450.9375 327.691406 445.460938 331.011719 437.4375 C 334.332031 429.402344 333.035156 420.367188 327.773438 413.65625 L 344.855469 396.574219 C 351.570312 401.847656 360.632812 403.132812 368.644531 399.8125 C 376.667969 396.492188 382.144531 389.171875 383.167969 380.707031 L 407.320312 380.707031 C 408.34375 389.183594 413.820312 396.492188 421.84375 399.8125 C 429.894531 403.132812 438.929688 401.835938 445.628906 396.574219 L 462.714844 413.65625 C 457.453125 420.355469 456.15625 429.402344 459.476562 437.4375 C 462.796875 445.460938 470.117188 450.9375 478.582031 451.960938 L 478.582031 476.113281 C 470.117188 477.136719 462.796875 482.609375 459.476562 490.632812 C 456.15625 498.667969 457.453125 507.703125 462.714844 514.417969 L 445.628906 531.496094 C 438.929688 526.234375 429.882812 524.914062 421.84375 528.261719 C 413.808594 531.582031 408.332031 538.902344 407.320312 547.363281 L 383.167969 547.363281 C 382.15625 538.902344 376.679688 531.582031 368.644531 528.257812 C 360.632812 524.925781 351.570312 526.234375 344.855469 531.496094 L 327.773438 514.417969 C 333.035156 507.714844 334.332031 498.667969 331.011719 490.632812 C 327.691406 482.609375 320.371094 477.136719 311.90625 476.113281 Z M 311.90625 451.960938 " fill-opacity="1" fill-rule="nonzero"/><path fill="#000000" d="M 395.238281 523.558594 C 428.058594 523.558594 454.761719 496.859375 454.761719 464.042969 C 454.761719 431.226562 428.058594 404.527344 395.238281 404.527344 C 362.417969 404.527344 335.714844 431.226562 335.714844 464.042969 C 335.714844 496.859375 362.417969 523.558594 395.238281 523.558594 Z M 395.238281 428.332031 C 414.929688 428.332031 430.953125 444.355469 430.953125 464.042969 C 430.953125 483.730469 414.929688 499.75 395.238281 499.75 C 375.546875 499.75 359.523438 483.730469 359.523438 464.042969 C 359.523438 444.355469 375.546875 428.332031 395.238281 428.332031 Z M 395.238281 428.332031 " fill-opacity="1" fill-rule="nonzero"/><path fill="#000000" d="M 383.40625 451.03125 L 407.214844 451.03125 L 407.214844 474.839844 L 383.40625 474.839844 Z M 383.40625 451.03125 " fill-opacity="1" fill-rule="nonzero"/><path fill="#000000" d="M 97.621094 475.945312 L 169.046875 475.945312 L 169.046875 499.75 L 97.621094 499.75 Z M 97.621094 475.945312 " fill-opacity="1" fill-rule="nonzero"/><path fill="#000000" d="M 97.621094 523.558594 L 169.046875 523.558594 L 169.046875 547.363281 L 97.621094 547.363281 Z M 97.621094 523.558594 " fill-opacity="1" fill-rule="nonzero"/><path fill="#000000" d="M 97.621094 571.171875 L 169.046875 571.171875 L 169.046875 594.976562 L 97.621094 594.976562 Z M 97.621094 571.171875 " fill-opacity="1" fill-rule="nonzero"/><path fill="#000000" d="M 97.621094 618.785156 L 169.046875 618.785156 L 169.046875 642.589844 L 97.621094 642.589844 Z M 97.621094 618.785156 " fill-opacity="1" fill-rule="nonzero"/><path fill="#000000" d="M 573.808594 178.363281 C 573.808594 179.144531 573.734375 179.921875 573.582031 180.6875 C 573.429688 181.453125 573.203125 182.199219 572.902344 182.917969 C 572.605469 183.640625 572.238281 184.328125 571.800781 184.976562 C 571.367188 185.628906 570.875 186.230469 570.320312 186.78125 C 569.769531 187.332031 569.167969 187.828125 568.519531 188.261719 C 567.867188 188.695312 567.183594 189.0625 566.460938 189.363281 C 565.738281 189.660156 564.992188 189.886719 564.226562 190.039062 C 563.460938 190.191406 562.6875 190.269531 561.90625 190.269531 C 561.121094 190.269531 560.347656 190.191406 559.582031 190.039062 C 558.816406 189.886719 558.070312 189.660156 557.347656 189.363281 C 556.625 189.0625 555.941406 188.695312 555.289062 188.261719 C 554.640625 187.828125 554.039062 187.332031 553.488281 186.78125 C 552.933594 186.230469 552.441406 185.628906 552.007812 184.976562 C 551.570312 184.328125 551.203125 183.640625 550.90625 182.917969 C 550.605469 182.199219 550.378906 181.453125 550.226562 180.6875 C 550.074219 179.921875 550 179.144531 550 178.363281 C 550 177.582031 550.074219 176.808594 550.226562 176.042969 C 550.378906 175.277344 550.605469 174.53125 550.90625 173.808594 C 551.203125 173.085938 551.570312 172.402344 552.007812 171.75 C 552.441406 171.101562 552.933594 170.5 553.488281 169.949219 C 554.039062 169.394531 554.640625 168.902344 555.289062 168.46875 C 555.941406 168.03125 556.625 167.667969 557.347656 167.367188 C 558.070312 167.066406 558.816406 166.84375 559.582031 166.691406 C 560.347656 166.539062 561.121094 166.460938 561.90625 166.460938 C 562.6875 166.460938 563.460938 166.539062 564.226562 166.691406 C 564.992188 166.84375 565.738281 167.066406 566.460938 167.367188 C 567.183594 167.667969 567.867188 168.03125 568.519531 168.46875 C 569.167969 168.902344 569.769531 169.394531 570.320312 169.949219 C 570.875 170.5 571.367188 171.101562 571.800781 171.75 C 572.238281 172.402344 572.605469 173.085938 572.902344 173.808594 C 573.203125 174.53125 573.429688 175.277344 573.582031 176.042969 C 573.734375 176.808594 573.808594 177.582031 573.808594 178.363281 Z M 573.808594 178.363281 " fill-opacity="1" fill-rule="nonzero"/><path fill="#000000" d="M 645.238281 178.363281 C 645.238281 179.144531 645.160156 179.921875 645.007812 180.6875 C 644.855469 181.453125 644.628906 182.199219 644.332031 182.917969 C 644.03125 183.640625 643.664062 184.328125 643.230469 184.976562 C 642.796875 185.628906 642.304688 186.230469 641.75 186.78125 C 641.199219 187.332031 640.597656 187.828125 639.945312 188.261719 C 639.296875 188.695312 638.609375 189.0625 637.886719 189.363281 C 637.167969 189.660156 636.421875 189.886719 635.65625 190.039062 C 634.886719 190.191406 634.113281 190.269531 633.332031 190.269531 C 632.550781 190.269531 631.777344 190.191406 631.011719 190.039062 C 630.242188 189.886719 629.5 189.660156 628.777344 189.363281 C 628.054688 189.0625 627.367188 188.695312 626.71875 188.261719 C 626.070312 187.828125 625.46875 187.332031 624.914062 186.78125 C 624.363281 186.230469 623.867188 185.628906 623.433594 184.976562 C 623 184.328125 622.632812 183.640625 622.335938 182.917969 C 622.035156 182.199219 621.808594 181.453125 621.65625 180.6875 C 621.503906 179.921875 621.429688 179.144531 621.429688 178.363281 C 621.429688 177.582031 621.503906 176.808594 621.65625 176.042969 C 621.808594 175.277344 622.035156 174.53125 622.335938 173.808594 C 622.632812 173.085938 623 172.402344 623.433594 171.75 C 623.867188 171.101562 624.363281 170.5 624.914062 169.949219 C 625.46875 169.394531 626.070312 168.902344 626.71875 168.46875 C 627.367188 168.03125 628.054688 167.667969 628.777344 167.367188 C 629.5 167.066406 630.242188 166.84375 631.011719 166.691406 C 631.777344 166.539062 632.550781 166.460938 633.332031 166.460938 C 634.113281 166.460938 634.886719 166.539062 635.65625 166.691406 C 636.421875 166.84375 637.167969 167.066406 637.886719 167.367188 C 638.609375 167.667969 639.296875 168.03125 639.945312 168.46875 C 640.597656 168.902344 641.199219 169.394531 641.75 169.949219 C 642.304688 170.5 642.796875 171.101562 643.230469 171.75 C 643.664062 172.402344 644.03125 173.085938 644.332031 173.808594 C 644.628906 174.53125 644.855469 175.277344 645.007812 176.042969 C 645.160156 176.808594 645.238281 177.582031 645.238281 178.363281 Z M 645.238281 178.363281 " fill-opacity="1" fill-rule="nonzero"/><path fill="#000000" d="M 592.691406 214.074219 L 573.808594 214.074219 L 573.808594 237.878906 L 592.691406 237.878906 C 606.738281 237.878906 619.929688 232.417969 629.855469 222.488281 L 613.011719 205.660156 C 607.582031 211.085938 600.367188 214.074219 592.691406 214.074219 Z M 592.691406 214.074219 " fill-opacity="1" fill-rule="nonzero"/><g clip-path="url(#ae43fabb7a)"><path fill="#000000" d="M 747.164062 642.589844 L 645.238281 557.660156 L 645.238281 594.976562 L 575.953125 594.976562 C 620.285156 548.078125 645.238281 486.15625 645.238281 420.644531 C 645.238281 407.25 644.167969 393.882812 642.09375 380.71875 L 707.378906 380.71875 L 702.25 355.089844 C 695.953125 323.570312 672.890625 297.765625 642.652344 287.71875 L 638.75 276.03125 C 663.726562 263.996094 682.640625 241.425781 689.714844 214.085938 L 704.761719 214.085938 C 724.453125 214.085938 740.476562 198.0625 740.476562 178.375 C 740.476562 162.878906 730.488281 149.785156 716.664062 144.855469 L 716.664062 118.847656 C 716.664062 53.214844 663.261719 -0.183594 597.617188 -0.183594 C 531.976562 -0.183594 478.570312 53.214844 478.570312 118.847656 L 478.570312 144.84375 C 465.878906 149.367188 456.59375 160.808594 455.144531 174.652344 C 434.296875 169.234375 412.808594 166.460938 391.023438 166.460938 C 337.453125 166.460938 284.34375 184.160156 241.476562 216.3125 L 217.785156 234.070312 L 186.40625 202.695312 L 153.796875 333.105469 L 304.929688 333.105469 L 271.058594 299.242188 L 284.371094 290.375 C 312.535156 271.601562 345.308594 261.6875 379.144531 261.6875 C 429.15625 261.6875 475.511719 283.242188 508.023438 320.785156 C 500.773438 330.902344 495.5 342.511719 492.988281 355.089844 L 487.855469 380.71875 L 541.832031 380.71875 C 547.140625 397.40625 550 414.773438 550 432.523438 C 550 522.09375 477.105469 594.976562 387.523438 594.976562 L 264.285156 594.976562 L 264.285156 416.429688 C 264.285156 396.742188 248.261719 380.71875 228.570312 380.71875 L 192.859375 380.71875 C 192.859375 367.589844 182.179688 356.914062 169.046875 356.914062 L 97.621094 356.914062 C 84.488281 356.914062 73.808594 367.589844 73.808594 380.71875 L 38.097656 380.71875 C 18.40625 380.71875 2.382812 396.742188 2.382812 416.429688 L 2.382812 702.105469 C 2.382812 721.792969 18.40625 737.816406 38.097656 737.816406 L 228.570312 737.816406 C 248.261719 737.816406 264.285156 721.792969 264.285156 702.105469 L 264.285156 690.203125 L 645.238281 690.203125 L 645.238281 727.519531 Z M 595.011719 333.105469 L 600.226562 333.105469 L 606.179688 356.914062 L 589.058594 356.914062 Z M 678.261719 356.914062 L 630.714844 356.914062 L 622.703125 324.855469 L 636.605469 310.953125 C 657.152344 318.335938 673 335.59375 678.261719 356.914062 Z M 619.714844 294.183594 L 604.59375 309.300781 L 590.640625 309.300781 L 575.523438 294.183594 L 579.035156 283.648438 C 585.046875 284.839844 591.261719 285.492188 597.617188 285.492188 C 603.976562 285.492188 610.179688 284.839844 616.203125 283.648438 Z M 669.046875 190.269531 C 669.046875 229.65625 637.011719 261.6875 597.617188 261.6875 C 558.226562 261.6875 526.191406 229.65625 526.191406 190.269531 L 526.191406 146.867188 C 526.191406 141.976562 529.128906 137.632812 533.667969 135.808594 L 560.308594 125.15625 C 564.832031 129.074219 570.570312 131.65625 576.964844 132.3125 L 658.320312 140.453125 C 664.429688 141.058594 669.035156 146.15625 669.035156 152.285156 L 669.035156 190.269531 Z M 704.761719 190.269531 L 692.855469 190.269531 L 692.855469 166.460938 L 704.761719 166.460938 C 711.320312 166.460938 716.664062 171.792969 716.664062 178.363281 C 716.664062 184.933594 711.320312 190.269531 704.761719 190.269531 Z M 597.617188 23.621094 C 650.128906 23.621094 692.855469 66.34375 692.855469 118.847656 L 692.855469 142.65625 L 691.390625 142.65625 C 687.523438 128.8125 675.691406 118.265625 660.703125 116.765625 L 579.355469 108.625 C 576.191406 108.3125 573.808594 105.695312 573.808594 102.515625 C 573.808594 100.875 574.453125 99.328125 575.605469 98.171875 L 582.226562 91.554688 L 565.390625 74.722656 L 558.773438 81.339844 C 553.117188 86.984375 550 94.519531 550 102.515625 C 550 102.886719 550 103.265625 550.023438 103.648438 L 524.832031 113.71875 C 512.523438 118.644531 504.214844 129.738281 502.703125 142.667969 L 502.378906 142.667969 L 502.378906 118.859375 C 502.378906 66.34375 545.105469 23.621094 597.617188 23.621094 Z M 490.476562 166.460938 L 502.378906 166.460938 L 502.378906 190.269531 L 490.476562 190.269531 C 483.917969 190.269531 478.570312 184.933594 478.570312 178.363281 C 478.570312 171.792969 483.917969 166.460938 490.476562 166.460938 Z M 379.144531 237.878906 C 340.59375 237.878906 303.25 249.175781 271.167969 270.566406 L 233.703125 295.550781 L 247.453125 309.300781 L 184.296875 309.300781 L 199.308594 249.261719 L 215.546875 265.496094 L 255.75 235.34375 C 294.523438 206.277344 342.558594 190.269531 391.023438 190.269531 C 416.046875 190.269531 440.59375 194.351562 464.082031 202.207031 C 470.617188 209.445312 479.976562 214.074219 490.476562 214.074219 L 505.511719 214.074219 C 512.59375 241.414062 531.5 263.984375 556.476562 276.019531 L 552.570312 287.71875 C 542.167969 291.171875 532.703125 296.609375 524.378906 303.394531 C 487.429688 261.746094 435.308594 237.878906 379.144531 237.878906 Z M 558.617188 310.941406 L 572.523438 324.84375 L 564.511719 356.914062 L 516.964844 356.914062 C 522.238281 335.59375 538.082031 318.335938 558.617188 310.941406 Z M 192.859375 452.136719 L 192.859375 666.398438 L 73.808594 666.398438 L 73.808594 452.136719 Z M 169.046875 380.71875 L 169.046875 428.332031 L 97.621094 428.332031 L 97.621094 380.71875 Z M 240.476562 702.105469 C 240.476562 708.675781 235.132812 714.007812 228.570312 714.007812 L 38.097656 714.007812 C 31.535156 714.007812 26.191406 708.675781 26.191406 702.105469 L 26.191406 416.429688 C 26.191406 409.859375 31.535156 404.527344 38.097656 404.527344 L 73.808594 404.527344 L 73.808594 428.332031 L 50 428.332031 L 50 690.203125 L 216.667969 690.203125 L 216.667969 428.332031 L 192.859375 428.332031 L 192.859375 404.527344 L 228.570312 404.527344 C 235.132812 404.527344 240.476562 409.859375 240.476562 416.429688 Z M 264.285156 666.398438 L 264.285156 618.785156 L 387.523438 618.785156 C 490.238281 618.785156 573.808594 535.222656 573.808594 432.523438 C 573.808594 414.882812 571.453125 397.527344 566.820312 380.71875 L 617.667969 380.71875 C 619.953125 393.871094 621.429688 407.214844 621.429688 420.644531 C 621.429688 490.027344 590.628906 555.019531 536.917969 598.941406 L 494.832031 633.363281 L 509.917969 651.804688 L 550.296875 618.785156 L 669.046875 618.785156 L 669.046875 608.488281 L 709.976562 642.589844 L 669.046875 676.691406 L 669.046875 666.398438 Z M 264.285156 666.398438 " fill-opacity="1" fill-rule="nonzero"/></g></svg>