<svg xmlns="http://www.w3.org/2000/svg" xmlns:xlink="http://www.w3.org/1999/xlink" width="1000" zoomAndPan="magnify" viewBox="0 0 750 749.999995" height="1000" preserveAspectRatio="xMidYMid meet" version="1.0"><path fill="#000000" d="M 262.476562 487.886719 L 269.527344 459.675781 L 141.761719 459.675781 L 148.816406 487.886719 C 155.347656 514.015625 178.71875 532.257812 205.644531 532.257812 C 232.574219 532.257812 255.945312 514.015625 262.476562 487.886719 Z M 172.800781 483.871094 L 238.488281 483.871094 C 234.046875 498.21875 220.816406 508.066406 205.644531 508.066406 C 190.476562 508.066406 177.242188 498.21875 172.800781 483.871094 Z M 172.800781 483.871094 " fill-opacity="1" fill-rule="nonzero"/><path fill="#000000" d="M 145.160156 411.289062 L 169.355469 411.289062 L 169.355469 399.195312 C 169.355469 379.183594 153.074219 362.902344 133.066406 362.902344 C 113.054688 362.902344 96.773438 379.183594 96.773438 399.195312 L 96.773438 411.289062 L 120.96875 411.289062 L 120.96875 399.195312 C 120.96875 392.515625 126.398438 387.097656 133.066406 387.097656 C 139.730469 387.097656 145.160156 392.515625 145.160156 399.195312 Z M 145.160156 411.289062 " fill-opacity="1" fill-rule="nonzero"/><path fill="#000000" d="M 266.128906 399.195312 C 266.128906 392.515625 271.558594 387.097656 278.226562 387.097656 C 284.890625 387.097656 290.324219 392.515625 290.324219 399.195312 L 290.324219 411.289062 L 314.515625 411.289062 L 314.515625 399.195312 C 314.515625 379.183594 298.234375 362.902344 278.226562 362.902344 C 258.21875 362.902344 241.933594 379.183594 241.933594 399.195312 L 241.933594 411.289062 L 266.128906 411.289062 Z M 266.128906 399.195312 " fill-opacity="1" fill-rule="nonzero"/><path fill="#000000" d="M 48.386719 48.386719 L 72.582031 48.386719 L 72.582031 72.582031 L 48.386719 72.582031 Z M 48.386719 48.386719 " fill-opacity="1" fill-rule="nonzero"/><path fill="#000000" d="M 96.773438 48.386719 L 120.96875 48.386719 L 120.96875 72.582031 L 96.773438 72.582031 Z M 96.773438 48.386719 " fill-opacity="1" fill-rule="nonzero"/><path fill="#000000" d="M 145.160156 48.386719 L 169.355469 48.386719 L 169.355469 72.582031 L 145.160156 72.582031 Z M 145.160156 48.386719 " fill-opacity="1" fill-rule="nonzero"/><path fill="#000000" d="M 193.546875 48.386719 L 217.742188 48.386719 L 217.742188 72.582031 L 193.546875 72.582031 Z M 193.546875 48.386719 " fill-opacity="1" fill-rule="nonzero"/><path fill="#000000" d="M 676.066406 473.710938 C 676.875 465.046875 677.417969 456.316406 677.417969 447.582031 C 677.417969 440.308594 677.03125 433.027344 676.476562 425.769531 C 719.660156 407.285156 750 364.378906 750 314.515625 C 750 247.816406 695.734375 193.546875 629.03125 193.546875 C 601.667969 193.546875 576.484375 202.789062 556.199219 218.164062 C 549.363281 213.472656 542.335938 209.117188 535.125 205.066406 C 548.566406 184.28125 556.453125 159.59375 556.453125 133.066406 C 556.453125 59.699219 496.753906 0 423.386719 0 C 351.230469 0 292.425781 57.773438 290.503906 129.484375 C 273.605469 124.003906 255.605469 120.96875 236.902344 120.96875 L 174.386719 120.96875 C 78.230469 120.96875 0 199.199219 0 295.355469 C 0 317.648438 4.199219 339.433594 12.472656 360.132812 L 18 373.933594 C 7.113281 382.828125 0 396.167969 0 411.289062 C 0 437.976562 21.703125 459.675781 48.386719 459.675781 L 52.777344 459.675781 C 66.242188 516.375 110.417969 561.167969 166.753906 575.578125 C 153.484375 588.207031 145.160156 605.988281 145.160156 625.71875 C 145.160156 694.246094 200.914062 750 269.445312 750 L 483.871094 750 C 497.214844 750 508.066406 739.148438 508.066406 725.804688 L 508.066406 669.011719 C 532.160156 703.292969 571.933594 725.804688 616.933594 725.804688 C 690.300781 725.804688 750 666.109375 750 592.742188 C 750 540.628906 719.804688 495.542969 676.066406 473.710938 Z M 725.804688 314.515625 C 725.804688 367.875 682.390625 411.289062 629.03125 411.289062 C 575.671875 411.289062 532.257812 367.875 532.257812 314.515625 C 532.257812 261.15625 575.671875 217.742188 629.03125 217.742188 C 682.390625 217.742188 725.804688 261.15625 725.804688 314.515625 Z M 538.027344 235.078125 C 519.433594 256.355469 508.066406 284.105469 508.066406 314.515625 C 508.066406 381.21875 562.332031 435.484375 629.03125 435.484375 C 637.171875 435.484375 645.121094 434.648438 652.816406 433.113281 C 653.082031 437.925781 653.226562 442.765625 653.226562 447.582031 C 653.226562 453.277344 653.007812 458.988281 652.621094 464.683594 C 641.25 461.503906 629.308594 459.675781 616.933594 459.675781 C 555.96875 459.675781 504.570312 500.953125 488.890625 556.996094 C 487.269531 556.644531 485.589844 556.453125 483.871094 556.453125 L 338.710938 556.453125 C 325.367188 556.453125 314.515625 567.300781 314.515625 580.644531 L 314.515625 653.226562 L 298.707031 653.226562 L 279.277344 601.390625 C 274.789062 589.441406 267.023438 579.375 257.394531 571.71875 C 307.535156 554.164062 346.089844 511.984375 358.511719 459.675781 L 362.902344 459.675781 C 389.589844 459.675781 411.289062 437.976562 411.289062 411.289062 C 411.289062 396.167969 404.175781 382.828125 393.289062 373.949219 L 398.820312 360.132812 C 407.09375 339.433594 411.289062 317.648438 411.289062 295.355469 C 411.289062 285.046875 410.214844 275.007812 408.496094 265.183594 C 413.429688 265.742188 418.402344 266.128906 423.386719 266.128906 C 461.429688 266.128906 495.714844 249.992188 519.980469 224.308594 C 526.136719 227.648438 532.148438 231.230469 538.027344 235.078125 Z M 387.097656 580.644531 L 435.484375 580.644531 L 435.484375 604.839844 L 387.097656 604.839844 Z M 362.902344 423.386719 L 362.902344 387.097656 C 376.246094 387.097656 387.097656 397.949219 387.097656 411.289062 C 387.097656 424.632812 376.246094 435.484375 362.902344 435.484375 L 362.285156 435.484375 C 362.601562 431.480469 362.902344 427.476562 362.902344 423.386719 Z M 314.515625 133.066406 C 314.515625 73.027344 363.363281 24.195312 423.386719 24.195312 C 483.410156 24.195312 532.257812 73.027344 532.257812 133.066406 C 532.257812 193.101562 483.410156 241.933594 423.386719 241.933594 C 416.164062 241.933594 409.027344 241.015625 401.988281 239.613281 C 396.351562 222.980469 388.28125 207.507812 378.195312 193.546875 L 483.871094 193.546875 C 497.214844 193.546875 508.066406 182.699219 508.066406 169.355469 L 508.066406 96.773438 C 508.066406 83.429688 497.214844 72.582031 483.871094 72.582031 L 459.675781 72.582031 C 446.335938 72.582031 435.484375 83.429688 435.484375 96.773438 L 435.484375 169.355469 L 411.289062 169.355469 L 411.289062 120.96875 C 411.289062 107.625 400.441406 96.773438 387.097656 96.773438 L 362.902344 96.773438 C 349.558594 96.773438 338.710938 107.625 338.710938 120.96875 L 338.710938 154.066406 C 331.199219 148.632812 323.238281 143.804688 314.890625 139.609375 C 314.769531 137.417969 314.515625 135.265625 314.515625 133.066406 Z M 362.902344 169.355469 L 362.902344 120.96875 L 387.097656 120.96875 L 387.097656 169.355469 Z M 459.675781 169.355469 L 459.675781 96.773438 L 483.871094 96.773438 L 483.871094 169.355469 Z M 48.386719 435.484375 C 35.042969 435.484375 24.195312 424.632812 24.195312 411.289062 C 24.195312 397.949219 35.042969 387.097656 48.386719 387.097656 L 48.386719 423.386719 C 48.386719 427.476562 48.691406 431.480469 49.003906 435.484375 Z M 48.386719 353.988281 L 48.386719 362.902344 C 45.507812 362.902344 42.726562 363.265625 39.980469 363.75 L 34.933594 351.144531 C 27.808594 333.328125 24.195312 314.550781 24.195312 295.355469 C 24.195312 212.527344 91.574219 145.160156 174.386719 145.160156 L 236.902344 145.160156 C 319.71875 145.160156 387.097656 212.527344 387.097656 295.355469 C 387.097656 314.550781 383.480469 333.328125 376.355469 351.144531 L 371.308594 363.75 C 368.578125 363.265625 365.78125 362.902344 362.902344 362.902344 C 362.902344 336.21875 341.203125 314.515625 314.515625 314.515625 L 168.21875 314.515625 C 155.503906 314.515625 145.160156 304.183594 145.160156 291.472656 C 145.160156 281.539062 151.488281 272.734375 160.921875 269.589844 L 173.175781 265.5 L 165.519531 242.566406 L 153.265625 246.652344 C 133.949219 253.089844 120.96875 271.101562 120.96875 291.472656 C 120.96875 293.238281 121.066406 294.96875 121.246094 296.671875 L 83.46875 307.464844 C 62.820312 313.355469 48.386719 332.492188 48.386719 353.988281 Z M 72.582031 423.386719 L 72.582031 353.988281 C 72.582031 343.234375 79.800781 333.675781 90.121094 330.726562 L 130.066406 319.320312 C 138.664062 331.066406 152.566406 338.710938 168.21875 338.710938 L 314.515625 338.710938 C 327.859375 338.710938 338.710938 349.558594 338.710938 362.902344 L 338.710938 423.386719 C 338.710938 496.753906 279.011719 556.453125 205.644531 556.453125 C 132.277344 556.453125 72.582031 496.753906 72.582031 423.386719 Z M 169.355469 625.71875 C 169.355469 600.859375 189.570312 580.644531 214.414062 580.644531 C 233.09375 580.644531 250.050781 592.402344 256.609375 609.894531 L 277.136719 664.632812 L 267.398438 684.109375 L 289.039062 694.933594 L 297.796875 677.417969 L 338.710938 677.417969 L 338.710938 725.804688 L 269.445312 725.804688 C 214.257812 725.804688 169.355469 680.902344 169.355469 625.71875 Z M 362.902344 725.804688 L 362.902344 677.417969 L 387.097656 677.417969 C 400.441406 677.417969 411.289062 688.269531 411.289062 701.613281 C 411.289062 714.957031 400.441406 725.804688 387.097656 725.804688 Z M 483.871094 725.804688 L 428.757812 725.804688 C 432.917969 718.65625 435.484375 710.46875 435.484375 701.613281 C 435.484375 674.925781 413.78125 653.226562 387.097656 653.226562 L 338.710938 653.226562 L 338.710938 580.644531 L 362.902344 580.644531 L 362.902344 604.839844 C 362.902344 618.179688 373.753906 629.03125 387.097656 629.03125 L 435.484375 629.03125 C 448.828125 629.03125 459.675781 618.179688 459.675781 604.839844 L 459.675781 580.644531 L 483.871094 580.644531 Z M 616.933594 701.613281 C 556.910156 701.613281 508.066406 652.777344 508.066406 592.742188 C 508.066406 532.707031 556.910156 483.871094 616.933594 483.871094 C 676.960938 483.871094 725.804688 532.707031 725.804688 592.742188 C 725.804688 652.777344 676.960938 701.613281 616.933594 701.613281 Z M 616.933594 701.613281 " fill-opacity="1" fill-rule="nonzero"/><path fill="#000000" d="M 556.453125 532.257812 L 580.644531 532.257812 L 580.644531 556.453125 L 556.453125 556.453125 Z M 556.453125 532.257812 " fill-opacity="1" fill-rule="nonzero"/><path fill="#000000" d="M 604.839844 532.257812 L 677.417969 532.257812 L 677.417969 556.453125 L 604.839844 556.453125 Z M 604.839844 532.257812 " fill-opacity="1" fill-rule="nonzero"/><path fill="#000000" d="M 556.453125 580.644531 L 580.644531 580.644531 L 580.644531 604.839844 L 556.453125 604.839844 Z M 556.453125 580.644531 " fill-opacity="1" fill-rule="nonzero"/><path fill="#000000" d="M 604.839844 580.644531 L 677.417969 580.644531 L 677.417969 604.839844 L 604.839844 604.839844 Z M 604.839844 580.644531 " fill-opacity="1" fill-rule="nonzero"/><path fill="#000000" d="M 556.453125 629.03125 L 580.644531 629.03125 L 580.644531 653.226562 L 556.453125 653.226562 Z M 556.453125 629.03125 " fill-opacity="1" fill-rule="nonzero"/><path fill="#000000" d="M 604.839844 629.03125 L 677.417969 629.03125 L 677.417969 653.226562 L 604.839844 653.226562 Z M 604.839844 629.03125 " fill-opacity="1" fill-rule="nonzero"/><path fill="#000000" d="M 698.070312 274.679688 L 680.964844 257.578125 L 604.839844 333.703125 L 589.199219 318.058594 L 572.09375 335.164062 L 604.839844 367.910156 Z M 698.070312 274.679688 " fill-opacity="1" fill-rule="nonzero"/></svg>