<svg xmlns="http://www.w3.org/2000/svg" xmlns:xlink="http://www.w3.org/1999/xlink" width="1000" zoomAndPan="magnify" viewBox="0 0 750 749.999995" height="1000" preserveAspectRatio="xMidYMid meet" version="1.0"><defs><clipPath id="22aaf5e0a1"><path d="M 0 26.589844 L 750 26.589844 L 750 723.339844 L 0 723.339844 Z M 0 26.589844 " clip-rule="nonzero"/></clipPath></defs><g clip-path="url(#22aaf5e0a1)"><path fill="#ffffff" d="M 73.722656 394.160156 C 81.085938 314.550781 121.167969 241.871094 184.261719 192.871094 L 166.5625 194.035156 C 160.273438 194.449219 154.871094 189.699219 154.457031 183.421875 C 154.035156 177.140625 158.785156 171.71875 165.050781 171.308594 L 218.90625 167.757812 C 226.632812 167.25 232.636719 174.492188 230.664062 181.996094 L 217.714844 231.527344 C 216.105469 237.679688 209.84375 241.226562 203.824219 239.660156 C 197.738281 238.074219 194.09375 231.84375 195.691406 225.757812 L 200.5625 207.117188 C 140.21875 252.542969 101.839844 321 94.890625 396.113281 C 94.351562 402.003906 89.128906 406.246094 83.335938 405.726562 C 77.488281 405.179688 73.191406 400.007812 73.722656 394.160156 Z M 510.078125 660.972656 C 512.546875 666.289062 510.257812 672.613281 504.945312 675.09375 C 460.933594 695.667969 420.417969 709.375 365.71875 709.375 C 327.261719 709.375 290.027344 702.078125 254.824219 687.6875 L 266.773438 705.835938 C 271.765625 713.425781 266.261719 723.488281 257.265625 723.488281 C 253.574219 723.488281 249.929688 721.679688 247.75 718.363281 L 216.792969 671.332031 C 212.550781 664.902344 215.828125 656.171875 223.242188 654.105469 L 274.1875 639.90625 C 280.242188 638.214844 286.519531 641.761719 288.222656 647.820312 C 289.90625 653.875 286.367188 660.152344 280.3125 661.84375 L 260.988281 667.226562 C 294.203125 681.082031 329.359375 688.128906 365.71875 688.128906 C 416.5 688.128906 454.5 675.21875 495.945312 655.835938 C 501.261719 653.355469 507.585938 655.652344 510.078125 660.972656 Z M 513.75 187.910156 C 517.152344 183.121094 523.785156 182.007812 528.5625 185.402344 C 590.792969 229.605469 632.652344 295.996094 645.859375 370.167969 L 654.597656 352.402344 C 657.378906 346.757812 664.195312 344.441406 669.835938 347.21875 C 675.488281 349.996094 677.804688 356.824219 675.039062 362.464844 L 651.1875 410.871094 C 647.738281 417.863281 638.46875 419.378906 632.96875 413.9375 L 596.550781 377.953125 C 592.082031 373.539062 592.042969 366.328125 596.457031 361.847656 C 600.878906 357.378906 608.089844 357.339844 612.566406 361.761719 L 624.949219 374 C 612.730469 305.253906 573.941406 243.707031 516.257812 202.726562 C 511.472656 199.320312 510.347656 192.699219 513.75 187.910156 Z M 407.113281 352.566406 L 362.621094 464.84375 C 360.433594 470.359375 354.253906 472.945312 348.835938 470.8125 C 343.367188 468.648438 340.703125 462.46875 342.875 457.015625 L 387.351562 344.738281 C 389.523438 339.28125 395.683594 336.613281 401.15625 338.777344 C 406.605469 340.929688 409.277344 347.113281 407.113281 352.566406 Z M 470.421875 404.785156 C 470.421875 408.101562 468.875 411.214844 466.25 413.238281 L 431.484375 439.800781 C 426.84375 443.339844 420.183594 442.503906 416.59375 437.800781 C 413.027344 433.148438 413.917969 426.476562 418.582031 422.90625 L 442.289062 404.785156 L 418.582031 386.671875 C 413.917969 383.105469 413.027344 376.445312 416.59375 371.769531 C 420.160156 367.109375 426.820312 366.222656 431.484375 369.78125 L 466.25 396.34375 C 468.871094 398.351562 470.421875 401.476562 470.421875 404.785156 Z M 331.398438 386.671875 L 307.679688 404.785156 L 331.398438 422.90625 C 339.566406 429.152344 334.769531 441.980469 324.945312 441.980469 C 322.675781 441.980469 320.417969 441.269531 318.496094 439.796875 L 283.722656 413.234375 C 278.171875 408.980469 278.164062 400.597656 283.722656 396.34375 L 318.496094 369.78125 C 323.148438 366.222656 329.8125 367.109375 333.378906 371.773438 C 336.953125 376.445312 336.0625 383.105469 331.398438 386.671875 Z M 506.675781 478.28125 L 506.675781 330.386719 C 506.675781 326.636719 503.503906 323.464844 499.753906 323.464844 L 250.238281 323.464844 C 246.472656 323.464844 243.296875 326.636719 243.296875 330.386719 L 243.296875 478.722656 C 243.296875 482.730469 246.683594 486.117188 250.691406 486.117188 L 498.839844 486.117188 C 503.15625 486.117188 506.675781 482.597656 506.675781 478.28125 Z M 399.585938 532.292969 L 350.382812 532.292969 L 350.382812 507.375 L 399.585938 507.375 Z M 527.929688 330.386719 C 527.929688 314.847656 515.289062 302.207031 499.753906 302.207031 L 250.238281 302.207031 C 234.695312 302.207031 222.042969 314.851562 222.042969 330.386719 L 222.042969 478.722656 C 222.042969 494.519531 234.90625 507.371094 250.691406 507.371094 L 327.609375 507.371094 L 327.609375 532.289062 L 289.171875 532.289062 C 282.886719 532.289062 277.792969 537.386719 277.792969 543.671875 C 277.792969 549.960938 282.886719 555.066406 289.171875 555.066406 L 460.796875 555.066406 C 467.082031 555.066406 472.179688 549.960938 472.179688 543.671875 C 472.179688 537.386719 467.082031 532.289062 460.796875 532.289062 L 422.359375 532.289062 L 422.359375 507.371094 L 498.835938 507.371094 C 514.871094 507.371094 527.929688 494.328125 527.929688 478.28125 Z M 171.550781 626.09375 L 171.550781 618.582031 C 171.550781 596.144531 159.175781 576.5625 140.902344 566.246094 C 162.382812 541.21875 144.570312 502.25 111.511719 502.25 C 78.425781 502.25 60.625 541.226562 82.105469 566.246094 C 63.828125 576.5625 51.457031 596.144531 51.457031 618.582031 L 51.457031 626.09375 C 32.949219 609.558594 21.277344 585.53125 21.277344 558.816406 C 21.277344 509.054688 61.742188 468.582031 111.511719 468.582031 C 161.261719 468.582031 201.746094 509.054688 201.746094 558.816406 C 201.746094 585.53125 190.058594 609.558594 171.550781 626.09375 Z M 93.988281 541.019531 C 93.988281 550.671875 101.84375 558.539062 111.511719 558.539062 C 121.167969 558.539062 129.019531 550.671875 129.019531 541.019531 C 129.019531 531.359375 121.164062 523.503906 111.511719 523.503906 C 101.84375 523.503906 93.988281 531.359375 93.988281 541.019531 Z M 72.714844 640.273438 C 97.179688 651.976562 125.824219 651.988281 150.296875 640.273438 L 150.296875 618.585938 C 150.296875 597.195312 132.90625 579.785156 111.511719 579.785156 C 90.121094 579.785156 72.714844 597.195312 72.714844 618.582031 Z M 111.511719 447.324219 C 50.023438 447.324219 0.0234375 497.335938 0.0234375 558.816406 C 0.0234375 620.285156 50.023438 670.304688 111.511719 670.304688 C 172.984375 670.304688 223.003906 620.285156 223.003906 558.816406 C 223.003906 497.335938 172.984375 447.324219 111.511719 447.324219 Z M 698.523438 626.09375 L 698.523438 618.582031 C 698.523438 596.144531 686.152344 576.5625 667.867188 566.246094 C 689.394531 541.203125 671.523438 502.25 638.480469 502.25 C 605.417969 502.25 587.582031 541.210938 609.070312 566.246094 C 590.8125 576.5625 578.421875 596.144531 578.421875 618.582031 L 578.421875 626.09375 C 559.917969 609.558594 548.246094 585.53125 548.246094 558.816406 C 548.246094 509.054688 588.71875 468.582031 638.480469 468.582031 C 688.230469 468.582031 728.710938 509.054688 728.710938 558.816406 C 728.710938 585.53125 717.019531 609.558594 698.523438 626.09375 Z M 620.960938 541.019531 C 620.960938 550.671875 628.824219 558.539062 638.476562 558.539062 C 648.128906 558.539062 655.992188 550.671875 655.992188 541.019531 C 655.992188 531.359375 648.128906 523.503906 638.476562 523.503906 C 628.824219 523.503906 620.960938 531.359375 620.960938 541.019531 Z M 599.675781 640.273438 C 624.152344 651.980469 652.785156 651.984375 677.269531 640.273438 L 677.269531 618.585938 C 677.269531 597.195312 659.867188 579.785156 638.476562 579.785156 C 617.085938 579.785156 599.675781 597.195312 599.675781 618.585938 Z M 638.476562 447.324219 C 699.945312 447.324219 749.964844 497.335938 749.964844 558.816406 C 749.964844 620.285156 699.945312 670.304688 638.476562 670.304688 C 576.996094 670.304688 526.988281 620.285156 526.988281 558.816406 C 526.988281 497.335938 576.996094 447.324219 638.476562 447.324219 Z M 374.996094 47.925781 C 424.746094 47.925781 465.230469 88.410156 465.230469 138.160156 C 465.230469 164.875 453.539062 188.910156 435.03125 205.445312 L 435.03125 197.925781 C 435.03125 175.496094 422.667969 155.90625 404.382812 145.597656 C 425.875 120.601562 408.078125 81.59375 374.996094 81.59375 C 341.894531 81.59375 324.113281 120.582031 345.585938 145.601562 C 327.308594 155.90625 314.9375 175.5 314.9375 197.925781 L 314.9375 205.445312 C 296.433594 188.902344 284.761719 164.875 284.761719 138.160156 C 284.761719 88.410156 325.226562 47.925781 374.996094 47.925781 Z M 357.480469 120.363281 C 357.480469 130.027344 365.324219 137.882812 374.996094 137.882812 C 384.644531 137.882812 392.5 130.027344 392.5 120.363281 C 392.5 110.703125 384.644531 102.847656 374.996094 102.847656 C 365.324219 102.847656 357.480469 110.703125 357.480469 120.363281 Z M 336.195312 219.613281 C 360.703125 231.339844 389.265625 231.335938 413.785156 219.613281 L 413.785156 197.925781 C 413.785156 176.539062 396.386719 159.136719 374.996094 159.136719 C 353.605469 159.136719 336.195312 176.539062 336.195312 197.925781 Z M 374.996094 249.648438 C 436.464844 249.648438 486.484375 199.636719 486.484375 138.160156 C 486.484375 76.691406 436.464844 26.667969 374.996094 26.667969 C 313.515625 26.667969 263.507812 76.691406 263.507812 138.160156 C 263.507812 199.636719 313.515625 249.648438 374.996094 249.648438 Z M 374.996094 249.648438 " fill-opacity="1" fill-rule="evenodd"/></g></svg>