<svg xmlns="http://www.w3.org/2000/svg" xmlns:xlink="http://www.w3.org/1999/xlink" width="1000" zoomAndPan="magnify" viewBox="0 0 750 749.999995" height="1000" preserveAspectRatio="xMidYMid meet" version="1.0"><defs><clipPath id="8cfc027220"><path d="M 12.273438 0 L 401 0 L 401 750 L 12.273438 750 Z M 12.273438 0 " clip-rule="nonzero"/></clipPath><clipPath id="4a74ce9c08"><path d="M 224 162 L 737.523438 162 L 737.523438 588 L 224 588 Z M 224 162 " clip-rule="nonzero"/></clipPath></defs><path fill="#ffffff" d="M 374.246094 320.589844 C 372.371094 315.710938 367.742188 312.460938 362.488281 312.460938 C 357.238281 312.460938 352.609375 315.710938 350.730469 320.589844 L 313.210938 420.652344 C 310.832031 427.15625 314.085938 434.285156 320.589844 436.789062 C 327.09375 439.164062 334.222656 435.910156 336.722656 429.40625 L 343.101562 412.523438 L 382 412.523438 L 388.378906 429.40625 C 390.257812 434.410156 395.007812 437.539062 400.136719 437.539062 C 401.640625 437.539062 403.140625 437.289062 404.515625 436.789062 C 411.019531 434.410156 414.273438 427.15625 411.769531 420.652344 Z M 352.484375 387.507812 L 362.613281 360.617188 L 372.746094 387.507812 Z M 352.484375 387.507812 " fill-opacity="1" fill-rule="nonzero"/><path fill="#ffffff" d="M 437.535156 312.460938 C 430.65625 312.460938 425.027344 318.089844 425.027344 324.96875 L 425.027344 425.03125 C 425.027344 431.910156 430.65625 437.539062 437.535156 437.539062 C 444.414062 437.539062 450.042969 431.910156 450.042969 425.03125 L 450.042969 324.96875 C 450.042969 318.089844 444.414062 312.460938 437.535156 312.460938 Z M 437.535156 312.460938 " fill-opacity="1" fill-rule="nonzero"/><g clip-path="url(#8cfc027220)"><path fill="#ffffff" d="M 387.503906 587.632812 C 270.308594 587.632812 174.875 492.195312 174.875 375 C 174.875 257.800781 270.308594 162.367188 387.503906 162.367188 C 394.382812 162.367188 400.011719 156.738281 400.011719 149.859375 L 400.011719 12.273438 C 400.011719 5.394531 394.382812 -0.234375 387.503906 -0.234375 L 321.589844 -0.234375 C 315.835938 -0.234375 310.832031 3.644531 309.457031 9.273438 L 291.570312 81.066406 C 276.3125 86.070312 261.550781 92.074219 247.542969 99.203125 L 184.128906 61.179688 C 179.25 58.179688 172.871094 59.054688 168.871094 63.054688 L 75.6875 156.238281 C 71.683594 160.242188 70.808594 166.621094 73.8125 171.5 L 111.835938 234.914062 C 104.703125 248.921875 98.574219 263.679688 93.699219 278.941406 L 21.902344 296.824219 C 16.273438 298.203125 12.398438 303.203125 12.398438 308.957031 L 12.398438 440.789062 C 12.398438 446.542969 16.273438 451.546875 21.902344 452.921875 L 93.699219 470.808594 C 98.703125 486.066406 104.703125 500.828125 111.835938 514.835938 L 73.8125 578.25 C 70.808594 583.128906 71.683594 589.507812 75.6875 593.507812 L 168.871094 686.691406 C 172.871094 690.695312 179.25 691.570312 184.128906 688.570312 L 247.542969 650.546875 C 261.550781 657.675781 276.3125 663.804688 291.570312 668.679688 L 309.457031 740.476562 C 310.832031 746.105469 315.835938 749.980469 321.589844 749.980469 L 387.503906 749.980469 C 394.382812 749.980469 400.011719 744.351562 400.011719 737.472656 L 400.011719 599.886719 C 400.011719 593.007812 394.382812 587.382812 387.503906 587.382812 Z M 374.996094 725.214844 L 331.34375 725.214844 L 314.085938 656.046875 C 312.957031 651.796875 309.707031 648.417969 305.578125 647.042969 C 287.191406 641.539062 269.433594 634.285156 253.046875 625.40625 C 249.167969 623.277344 244.417969 623.402344 240.664062 625.65625 L 179.625 662.300781 L 100.203125 582.878906 L 136.851562 521.839844 C 139.101562 518.089844 139.226562 513.335938 137.101562 509.457031 C 128.21875 493.074219 120.964844 475.3125 115.460938 456.925781 C 114.210938 452.671875 110.832031 449.421875 106.457031 448.417969 L 37.289062 431.160156 L 37.289062 318.839844 L 106.457031 301.578125 C 110.707031 300.453125 114.085938 297.199219 115.460938 293.074219 C 120.964844 274.6875 128.21875 256.925781 137.101562 240.542969 C 139.226562 236.664062 139.101562 231.910156 136.851562 228.160156 L 100.203125 167.121094 L 179.625 87.695312 L 240.664062 124.34375 C 244.417969 126.59375 249.167969 126.71875 253.046875 124.59375 C 269.433594 115.714844 287.191406 108.460938 305.578125 102.957031 C 309.832031 101.703125 313.085938 98.328125 314.085938 93.949219 L 331.34375 24.78125 L 374.996094 24.78125 L 374.996094 137.726562 C 249.792969 144.230469 149.859375 248.171875 149.859375 375 C 149.859375 501.828125 249.792969 605.765625 374.996094 612.269531 Z M 374.996094 725.214844 " fill-opacity="1" fill-rule="nonzero"/></g><g clip-path="url(#4a74ce9c08)"><path fill="#ffffff" d="M 687.691406 324.96875 C 664.425781 324.96875 645.039062 340.976562 639.410156 362.492188 L 512.582031 362.492188 L 512.582031 312.460938 L 562.613281 312.460938 C 566.117188 312.460938 569.492188 310.960938 571.871094 308.332031 L 617.648438 258.175781 C 623.777344 260.804688 630.53125 262.429688 637.660156 262.429688 C 665.300781 262.429688 687.691406 240.039062 687.691406 212.398438 C 687.691406 184.757812 665.300781 162.367188 637.660156 162.367188 C 610.019531 162.367188 587.628906 184.757812 587.628906 212.398438 C 587.628906 223.78125 591.632812 234.160156 598.011719 242.542969 L 557.109375 287.445312 L 512.582031 287.445312 L 512.582031 262.429688 C 512.582031 255.550781 506.953125 249.921875 500.074219 249.921875 L 475.058594 249.921875 L 475.058594 224.90625 C 475.058594 218.027344 469.429688 212.398438 462.550781 212.398438 C 455.671875 212.398438 450.042969 218.027344 450.042969 224.90625 L 450.042969 249.921875 L 400.011719 249.921875 L 400.011719 224.90625 C 400.011719 218.027344 394.382812 212.398438 387.503906 212.398438 C 380.625 212.398438 374.996094 218.027344 374.996094 224.90625 L 374.996094 249.921875 L 324.964844 249.921875 L 324.964844 224.90625 C 324.964844 218.027344 319.335938 212.398438 312.457031 212.398438 C 305.578125 212.398438 299.949219 218.027344 299.949219 224.90625 L 299.949219 249.921875 L 274.933594 249.921875 C 268.054688 249.921875 262.425781 255.550781 262.425781 262.429688 L 262.425781 287.445312 L 237.414062 287.445312 C 230.53125 287.445312 224.90625 293.074219 224.90625 299.953125 C 224.90625 306.832031 230.53125 312.460938 237.414062 312.460938 L 262.425781 312.460938 L 262.425781 362.492188 L 237.414062 362.492188 C 230.53125 362.492188 224.90625 368.121094 224.90625 375 C 224.90625 381.878906 230.53125 387.507812 237.414062 387.507812 L 262.425781 387.507812 L 262.425781 437.539062 L 237.414062 437.539062 C 230.53125 437.539062 224.90625 443.167969 224.90625 450.046875 C 224.90625 456.925781 230.53125 462.554688 237.414062 462.554688 L 262.425781 462.554688 L 262.425781 487.570312 C 262.425781 494.449219 268.054688 500.078125 274.933594 500.078125 L 299.949219 500.078125 L 299.949219 525.09375 C 299.949219 531.972656 305.578125 537.601562 312.457031 537.601562 C 319.335938 537.601562 324.964844 531.972656 324.964844 525.09375 L 324.964844 500.078125 L 374.996094 500.078125 L 374.996094 525.09375 C 374.996094 531.972656 380.625 537.601562 387.503906 537.601562 C 394.382812 537.601562 400.011719 531.972656 400.011719 525.09375 L 400.011719 500.078125 L 450.042969 500.078125 L 450.042969 525.09375 C 450.042969 531.972656 455.671875 537.601562 462.550781 537.601562 C 469.429688 537.601562 475.058594 531.972656 475.058594 525.09375 L 475.058594 500.078125 L 500.074219 500.078125 C 506.953125 500.078125 512.582031 494.449219 512.582031 487.570312 L 512.582031 462.554688 L 557.109375 462.554688 L 598.011719 507.457031 C 591.632812 515.835938 587.628906 526.21875 587.628906 537.601562 C 587.628906 565.242188 610.019531 587.632812 637.660156 587.632812 C 665.300781 587.632812 687.691406 565.242188 687.691406 537.601562 C 687.691406 509.957031 665.300781 487.570312 637.660156 487.570312 C 630.53125 487.570312 623.777344 489.070312 617.648438 491.820312 L 571.871094 441.664062 C 569.492188 439.039062 566.117188 437.539062 562.613281 437.539062 L 512.582031 437.539062 L 512.582031 387.507812 L 639.410156 387.507812 C 645.039062 409.019531 664.425781 425.03125 687.691406 425.03125 C 715.332031 425.03125 737.722656 402.640625 737.722656 375 C 737.722656 347.355469 715.332031 324.96875 687.691406 324.96875 Z M 637.660156 187.382812 C 651.417969 187.382812 662.675781 198.640625 662.675781 212.398438 C 662.675781 226.15625 651.417969 237.414062 637.660156 237.414062 C 623.902344 237.414062 612.644531 226.15625 612.644531 212.398438 C 612.644531 198.640625 623.902344 187.382812 637.660156 187.382812 Z M 662.675781 537.601562 C 662.675781 551.359375 651.417969 562.617188 637.660156 562.617188 C 623.902344 562.617188 612.644531 551.359375 612.644531 537.601562 C 612.644531 523.839844 623.902344 512.585938 637.660156 512.585938 C 651.417969 512.585938 662.675781 523.839844 662.675781 537.601562 Z M 487.566406 475.0625 L 287.441406 475.0625 L 287.441406 274.9375 L 487.566406 274.9375 Z M 687.691406 400.015625 C 673.933594 400.015625 662.675781 388.757812 662.675781 375 C 662.675781 361.242188 673.933594 349.984375 687.691406 349.984375 C 701.449219 349.984375 712.707031 361.242188 712.707031 375 C 712.707031 388.757812 701.449219 400.015625 687.691406 400.015625 Z M 687.691406 400.015625 " fill-opacity="1" fill-rule="nonzero"/></g></svg>