<svg xmlns="http://www.w3.org/2000/svg" xmlns:xlink="http://www.w3.org/1999/xlink" width="1000" zoomAndPan="magnify" viewBox="0 0 750 749.999995" height="1000" preserveAspectRatio="xMidYMid meet" version="1.0"><path fill="#000000" d="M 447.582031 217.742188 C 447.582031 218.535156 447.503906 219.324219 447.347656 220.101562 C 447.191406 220.882812 446.964844 221.636719 446.660156 222.371094 C 446.355469 223.105469 445.984375 223.800781 445.542969 224.460938 C 445.101562 225.121094 444.597656 225.734375 444.039062 226.296875 C 443.476562 226.855469 442.863281 227.359375 442.203125 227.800781 C 441.542969 228.242188 440.847656 228.613281 440.113281 228.917969 C 439.378906 229.222656 438.621094 229.453125 437.84375 229.605469 C 437.066406 229.761719 436.277344 229.839844 435.484375 229.839844 C 434.691406 229.839844 433.902344 229.761719 433.125 229.605469 C 432.34375 229.453125 431.589844 229.222656 430.855469 228.917969 C 430.121094 228.613281 429.421875 228.242188 428.761719 227.800781 C 428.101562 227.359375 427.492188 226.855469 426.929688 226.296875 C 426.367188 225.734375 425.867188 225.121094 425.425781 224.460938 C 424.984375 223.800781 424.613281 223.105469 424.308594 222.371094 C 424.003906 221.636719 423.773438 220.882812 423.621094 220.101562 C 423.464844 219.324219 423.386719 218.535156 423.386719 217.742188 C 423.386719 216.949219 423.464844 216.160156 423.621094 215.382812 C 423.773438 214.601562 424.003906 213.847656 424.308594 213.113281 C 424.613281 212.378906 424.984375 211.683594 425.425781 211.019531 C 425.867188 210.359375 426.367188 209.75 426.929688 209.1875 C 427.492188 208.625 428.101562 208.125 428.761719 207.683594 C 429.421875 207.242188 430.121094 206.871094 430.855469 206.566406 C 431.589844 206.261719 432.34375 206.03125 433.125 205.878906 C 433.902344 205.722656 434.691406 205.644531 435.484375 205.644531 C 436.277344 205.644531 437.066406 205.722656 437.84375 205.878906 C 438.621094 206.03125 439.378906 206.261719 440.113281 206.566406 C 440.847656 206.871094 441.542969 207.242188 442.203125 207.683594 C 442.863281 208.125 443.476562 208.625 444.039062 209.1875 C 444.597656 209.75 445.101562 210.359375 445.542969 211.019531 C 445.984375 211.683594 446.355469 212.378906 446.660156 213.113281 C 446.964844 213.847656 447.191406 214.601562 447.347656 215.382812 C 447.503906 216.160156 447.582031 216.949219 447.582031 217.742188 Z M 447.582031 217.742188 " fill-opacity="1" fill-rule="nonzero"/><path fill="#000000" d="M 326.613281 217.742188 C 326.613281 218.535156 326.535156 219.324219 326.378906 220.101562 C 326.226562 220.882812 325.996094 221.636719 325.691406 222.371094 C 325.386719 223.105469 325.015625 223.800781 324.574219 224.460938 C 324.132812 225.121094 323.632812 225.734375 323.070312 226.296875 C 322.507812 226.855469 321.898438 227.359375 321.238281 227.800781 C 320.578125 228.242188 319.878906 228.613281 319.144531 228.917969 C 318.410156 229.222656 317.65625 229.453125 316.875 229.605469 C 316.097656 229.761719 315.308594 229.839844 314.515625 229.839844 C 313.722656 229.839844 312.933594 229.761719 312.15625 229.605469 C 311.378906 229.453125 310.621094 229.222656 309.886719 228.917969 C 309.152344 228.613281 308.457031 228.242188 307.796875 227.800781 C 307.136719 227.359375 306.523438 226.855469 305.960938 226.296875 C 305.402344 225.734375 304.898438 225.121094 304.457031 224.460938 C 304.015625 223.800781 303.644531 223.105469 303.339844 222.371094 C 303.035156 221.636719 302.808594 220.882812 302.652344 220.101562 C 302.496094 219.324219 302.417969 218.535156 302.417969 217.742188 C 302.417969 216.949219 302.496094 216.160156 302.652344 215.382812 C 302.808594 214.601562 303.035156 213.847656 303.339844 213.113281 C 303.644531 212.378906 304.015625 211.683594 304.457031 211.019531 C 304.898438 210.359375 305.402344 209.75 305.960938 209.1875 C 306.523438 208.625 307.136719 208.125 307.796875 207.683594 C 308.457031 207.242188 309.152344 206.871094 309.886719 206.566406 C 310.621094 206.261719 311.378906 206.03125 312.15625 205.878906 C 312.933594 205.722656 313.722656 205.644531 314.515625 205.644531 C 315.308594 205.644531 316.097656 205.722656 316.875 205.878906 C 317.65625 206.03125 318.410156 206.261719 319.144531 206.566406 C 319.878906 206.871094 320.578125 207.242188 321.238281 207.683594 C 321.898438 208.125 322.507812 208.625 323.070312 209.1875 C 323.632812 209.75 324.132812 210.359375 324.574219 211.019531 C 325.015625 211.683594 325.386719 212.378906 325.691406 213.113281 C 325.996094 213.847656 326.226562 214.601562 326.378906 215.382812 C 326.535156 216.160156 326.613281 216.949219 326.613281 217.742188 Z M 326.613281 217.742188 " fill-opacity="1" fill-rule="nonzero"/><path fill="#000000" d="M 381.691406 270.265625 C 387.472656 267.375 391.777344 262.402344 393.824219 256.269531 C 395.867188 250.136719 395.40625 243.582031 392.515625 237.796875 L 387.097656 226.984375 L 387.097656 205.644531 L 362.902344 205.644531 L 362.902344 229.839844 C 362.902344 231.714844 363.339844 233.578125 364.171875 235.246094 L 370.863281 248.613281 L 357.496094 255.300781 L 368.324219 276.945312 Z M 381.691406 270.265625 " fill-opacity="1" fill-rule="nonzero"/><path fill="#000000" d="M 375 338.710938 C 402.617188 338.710938 426.714844 320.054688 433.585938 293.335938 L 410.140625 287.308594 C 406.027344 303.328125 391.574219 314.515625 375 314.515625 C 358.425781 314.515625 343.984375 303.328125 339.859375 287.296875 L 316.414062 293.335938 C 323.308594 320.054688 347.394531 338.710938 375 338.710938 Z M 375 338.710938 " fill-opacity="1" fill-rule="nonzero"/><path fill="#000000" d="M 362.902344 580.644531 L 387.097656 580.644531 C 393.773438 580.644531 399.195312 586.078125 399.195312 592.742188 L 423.386719 592.742188 C 423.386719 572.734375 407.105469 556.453125 387.097656 556.453125 L 387.097656 532.257812 L 362.902344 532.257812 L 362.902344 556.453125 C 342.894531 556.453125 326.613281 572.734375 326.613281 592.742188 C 326.613281 612.75 342.894531 629.03125 362.902344 629.03125 L 387.097656 629.03125 C 393.773438 629.03125 399.195312 634.464844 399.195312 641.128906 C 399.195312 647.792969 393.773438 653.226562 387.097656 653.226562 L 362.902344 653.226562 C 356.226562 653.226562 350.804688 647.792969 350.804688 641.128906 L 326.613281 641.128906 C 326.613281 661.136719 342.894531 677.417969 362.902344 677.417969 L 362.902344 701.613281 L 387.097656 701.613281 L 387.097656 677.417969 C 407.105469 677.417969 423.386719 661.136719 423.386719 641.128906 C 423.386719 621.121094 407.105469 604.839844 387.097656 604.839844 L 362.902344 604.839844 C 356.226562 604.839844 350.804688 599.40625 350.804688 592.742188 C 350.804688 586.078125 356.226562 580.644531 362.902344 580.644531 Z M 362.902344 580.644531 " fill-opacity="1" fill-rule="nonzero"/><path fill="#000000" d="M 616.933594 326.613281 L 665.324219 326.613281 C 712.003906 326.613281 750 288.628906 750 241.933594 L 750 229.839844 L 677.417969 229.839844 C 630.738281 229.839844 592.742188 267.824219 592.742188 314.515625 L 592.742188 351.121094 C 582.605469 343.441406 570.121094 338.710938 556.453125 338.710938 L 508.066406 338.710938 L 508.066406 350.804688 C 508.066406 384.15625 535.199219 411.289062 568.546875 411.289062 L 592.742188 411.289062 L 592.742188 499.863281 C 550.367188 426.761719 464.40625 397.730469 435.472656 389.804688 L 435.484375 378.847656 C 435.484375 374.007812 438.363281 369.640625 442.800781 367.742188 L 446.820312 366.011719 C 487.851562 348.421875 515.191406 309.945312 519.300781 266.128906 L 520.160156 266.128906 C 546.847656 266.128906 568.546875 244.425781 568.546875 217.742188 C 568.546875 206.722656 564.703125 196.679688 558.484375 188.539062 C 564.96875 172.34375 568.546875 154.898438 568.546875 137.46875 C 568.546875 61.667969 506.878906 0 431.082031 0 L 315.714844 0 C 276.207031 0 241.667969 26.769531 231.421875 64.464844 C 200.46875 81.96875 181.453125 114.386719 181.453125 150.265625 C 181.453125 164.054688 184.523438 177.675781 190.101562 190.246094 C 184.679688 198.074219 181.453125 207.519531 181.453125 217.742188 C 181.453125 244.425781 203.152344 266.128906 229.839844 266.128906 L 230.683594 266.128906 C 234.785156 309.945312 262.136719 348.433594 303.167969 366.023438 L 307.171875 367.742188 C 311.636719 369.652344 314.515625 374.007812 314.515625 378.847656 L 314.515625 389.792969 C 285.59375 397.71875 199.632812 426.738281 157.257812 499.828125 L 157.257812 411.289062 L 181.453125 411.289062 C 214.800781 411.289062 241.933594 384.15625 241.933594 350.804688 L 241.933594 338.710938 L 193.546875 338.710938 C 179.878906 338.710938 167.394531 343.441406 157.257812 351.121094 L 157.257812 314.515625 C 157.257812 267.824219 119.261719 229.839844 72.582031 229.839844 L 0 229.839844 L 0 241.933594 C 0 288.628906 37.996094 326.613281 84.675781 326.613281 L 133.066406 326.613281 L 133.066406 400.535156 C 117.675781 384.796875 96.265625 375 72.582031 375 L 0 375 L 0 387.097656 C 0 433.789062 37.996094 471.773438 84.675781 471.773438 L 133.066406 471.773438 L 133.066406 521.503906 C 117.675781 505.765625 96.265625 495.96875 72.582031 495.96875 L 0 495.96875 L 0 508.066406 C 0 554.757812 37.996094 592.742188 84.675781 592.742188 L 133.066406 592.742188 L 133.066406 616.933594 C 133.066406 663.628906 171.058594 701.613281 217.742188 701.613281 L 255.253906 701.613281 C 260.878906 729.179688 285.300781 750 314.515625 750 L 435.484375 750 C 464.683594 750 489.121094 729.179688 494.746094 701.613281 L 532.246094 701.613281 C 578.925781 701.613281 616.921875 663.628906 616.921875 616.933594 L 616.921875 604.839844 L 616.933594 604.839844 L 616.933594 592.742188 L 665.324219 592.742188 C 712.003906 592.742188 750 554.757812 750 508.066406 L 750 495.96875 L 677.417969 495.96875 C 653.734375 495.96875 632.324219 505.765625 616.933594 521.503906 L 616.933594 471.773438 L 665.324219 471.773438 C 712.003906 471.773438 750 433.789062 750 387.097656 L 750 375 L 677.417969 375 C 653.734375 375 632.324219 384.796875 616.933594 400.535156 Z M 677.417969 254.03125 L 724.585938 254.03125 C 718.960938 281.601562 694.535156 302.417969 665.324219 302.417969 L 618.15625 302.417969 C 623.769531 274.851562 648.207031 254.03125 677.417969 254.03125 Z M 568.546875 387.097656 C 552.773438 387.097656 539.324219 376.984375 534.328125 362.902344 L 556.453125 362.902344 C 572.226562 362.902344 585.675781 373.015625 590.671875 387.097656 Z M 193.546875 362.902344 L 215.671875 362.902344 C 210.675781 376.984375 197.226562 387.097656 181.453125 387.097656 L 159.328125 387.097656 C 164.324219 373.015625 177.773438 362.902344 193.546875 362.902344 Z M 84.675781 302.417969 C 55.464844 302.417969 31.027344 281.601562 25.414062 254.03125 L 72.582031 254.03125 C 101.792969 254.03125 126.230469 274.851562 131.84375 302.417969 Z M 84.675781 447.582031 C 55.464844 447.582031 31.027344 426.761719 25.414062 399.195312 L 72.582031 399.195312 C 101.792969 399.195312 126.230469 420.011719 131.84375 447.582031 Z M 84.675781 568.546875 C 55.464844 568.546875 31.027344 547.730469 25.414062 520.160156 L 72.582031 520.160156 C 101.792969 520.160156 126.230469 540.980469 131.84375 568.546875 Z M 677.417969 520.160156 L 724.585938 520.160156 C 718.960938 547.730469 694.535156 568.546875 665.324219 568.546875 L 618.15625 568.546875 C 623.769531 540.980469 648.207031 520.160156 677.417969 520.160156 Z M 423.386719 483.871094 L 326.613281 483.871094 L 326.613281 471.773438 C 326.613281 465.109375 332.03125 459.675781 338.710938 459.675781 L 411.289062 459.675781 C 417.96875 459.675781 423.386719 465.109375 423.386719 471.773438 Z M 520.160156 241.933594 L 520.160156 193.546875 C 533.503906 193.546875 544.355469 204.398438 544.355469 217.742188 C 544.355469 231.085938 533.503906 241.933594 520.160156 241.933594 Z M 247.34375 83.40625 L 252.640625 80.757812 L 253.800781 74.953125 C 259.679688 45.542969 285.714844 24.195312 315.714844 24.195312 L 431.082031 24.195312 C 493.535156 24.195312 544.355469 75.011719 544.355469 137.46875 C 544.355469 149.503906 542.335938 161.578125 538.558594 173.03125 C 532.875 170.683594 526.679688 169.355469 520.160156 169.355469 L 508.066406 169.355469 C 494.722656 169.355469 483.871094 158.503906 483.871094 145.160156 C 483.871094 125.152344 467.589844 108.871094 447.582031 108.871094 L 447.582031 133.066406 C 454.257812 133.066406 459.675781 138.496094 459.675781 145.160156 C 459.675781 153.980469 462.109375 162.230469 466.257812 169.355469 L 459.675781 169.355469 C 446.335938 169.355469 435.484375 158.503906 435.484375 145.160156 C 435.484375 125.152344 419.203125 108.871094 399.195312 108.871094 L 399.195312 133.066406 C 405.871094 133.066406 411.289062 138.496094 411.289062 145.160156 C 411.289062 153.992188 413.84375 162.179688 418.003906 169.320312 C 400.933594 169.113281 387.097656 155.191406 387.097656 138.074219 C 387.097656 121.972656 373.996094 108.871094 357.894531 108.871094 C 350.867188 108.871094 343.984375 111.472656 338.710938 116.054688 C 333.421875 111.472656 326.550781 108.871094 319.523438 108.871094 L 316.441406 108.871094 C 302.578125 108.871094 290.527344 118.742188 287.804688 132.339844 C 284.308594 149.820312 271.050781 163.390625 254.03125 167.820312 L 254.03125 145.160156 C 254.03125 138.496094 259.453125 133.066406 266.128906 133.066406 L 266.128906 108.871094 C 246.121094 108.871094 229.839844 125.152344 229.839844 145.160156 L 229.839844 169.355469 C 222.617188 169.355469 215.820312 171.058594 209.648438 173.902344 C 207.097656 166.292969 205.644531 158.324219 205.644531 150.265625 C 205.644531 121.886719 221.417969 96.363281 247.34375 83.40625 Z M 205.644531 217.742188 C 205.644531 204.398438 216.496094 193.546875 229.839844 193.546875 L 229.851562 241.933594 L 229.839844 241.933594 C 216.496094 241.933594 205.644531 231.085938 205.644531 217.742188 Z M 312.691406 343.777344 C 277.078125 328.5 254.042969 293.589844 254.042969 254.832031 L 254.03125 192.542969 C 282.410156 187.851562 305.734375 166.015625 311.527344 137.105469 C 312 134.757812 314.070312 133.066406 316.441406 133.066406 L 319.523438 133.066406 C 320.84375 133.066406 322.136719 133.597656 323.070312 134.527344 L 338.710938 150.167969 L 354.363281 134.527344 C 357.207031 131.648438 362.902344 133.984375 362.902344 138.074219 C 362.902344 168.664062 387.796875 193.546875 418.378906 193.546875 L 495.96875 193.546875 L 495.957031 254.84375 C 495.945312 293.601562 472.921875 328.511719 437.296875 343.777344 L 433.269531 345.507812 C 419.925781 351.230469 411.289062 364.320312 411.289062 378.847656 L 411.277344 399.339844 C 411.242188 419.273438 395.007812 435.484375 374.941406 435.484375 C 354.96875 435.484375 338.710938 419.226562 338.710938 399.242188 L 338.710938 378.847656 C 338.710938 364.320312 330.074219 351.230469 316.707031 345.496094 Z M 157.257812 616.933594 L 157.257812 592.742188 C 157.257812 468.808594 276.992188 425.214844 316.609375 414.179688 C 318.808594 422.757812 322.863281 430.511719 328.304688 437.191406 C 313.390625 441.691406 302.417969 455.40625 302.417969 471.773438 L 302.417969 489.917969 L 278.214844 508.066406 C 263.070312 519.433594 254.03125 537.519531 254.03125 556.453125 L 254.03125 580.644531 L 229.839844 580.644531 L 229.839844 520.160156 L 205.644531 520.160156 L 205.644531 580.644531 L 181.441406 580.644531 L 181.441406 604.839844 L 212.371094 604.839844 C 208.210938 611.988281 205.644531 620.175781 205.644531 629.03125 L 205.644531 653.226562 C 205.644531 661.851562 208.101562 669.824219 212.070312 676.851562 C 181.402344 673.933594 157.257812 648.339844 157.257812 616.933594 Z M 278.226562 653.226562 L 278.226562 665.324219 C 278.226562 671.988281 272.804688 677.417969 266.128906 677.417969 L 254.03125 677.417969 C 240.691406 677.417969 229.839844 666.570312 229.839844 653.226562 L 229.839844 629.03125 C 229.839844 615.691406 240.691406 604.839844 254.03125 604.839844 L 266.128906 604.839844 C 272.804688 604.839844 278.226562 610.269531 278.226562 616.933594 L 278.226562 629.03125 L 254.03125 629.03125 L 254.03125 653.226562 Z M 435.484375 725.804688 L 314.515625 725.804688 C 297.785156 725.804688 283.800781 714.375 279.628906 698.953125 C 292.960938 693.582031 302.417969 680.550781 302.417969 665.324219 L 302.417969 616.933594 C 302.417969 601.183594 292.269531 587.878906 278.226562 582.871094 L 278.226562 556.453125 C 278.226562 545.09375 283.644531 534.242188 292.730469 527.417969 L 318.542969 508.066406 L 431.457031 508.066406 L 457.257812 527.417969 C 466.355469 534.242188 471.773438 545.09375 471.773438 556.453125 L 471.773438 582.871094 C 457.71875 587.878906 447.570312 601.183594 447.570312 616.933594 L 447.570312 665.324219 C 447.570312 680.566406 457.027344 693.582031 470.371094 698.953125 C 466.183594 714.375 452.214844 725.804688 435.484375 725.804688 Z M 520.148438 629.03125 L 520.148438 653.226562 C 520.148438 666.570312 509.296875 677.417969 495.957031 677.417969 L 483.859375 677.417969 C 477.179688 677.417969 471.761719 671.988281 471.761719 665.324219 L 471.761719 653.226562 L 495.957031 653.226562 L 495.957031 629.03125 L 471.761719 629.03125 L 471.761719 616.933594 C 471.761719 610.269531 477.179688 604.839844 483.859375 604.839844 L 495.957031 604.839844 C 509.296875 604.839844 520.148438 615.691406 520.148438 629.03125 Z M 592.730469 616.933594 C 592.730469 648.339844 568.585938 673.933594 537.917969 676.851562 C 541.886719 669.835938 544.34375 661.851562 544.34375 653.226562 L 544.34375 629.03125 C 544.34375 620.175781 541.777344 611.988281 537.617188 604.839844 L 568.546875 604.839844 L 568.546875 580.644531 L 544.34375 580.644531 L 544.34375 520.160156 L 520.148438 520.160156 L 520.148438 580.644531 L 495.96875 580.644531 L 495.96875 556.453125 C 495.96875 537.519531 486.929688 519.433594 471.773438 508.066406 L 447.582031 489.917969 L 447.582031 471.773438 C 447.582031 455.40625 436.621094 441.703125 421.707031 437.191406 C 427.125 430.546875 431.152344 422.832031 433.367188 414.289062 C 472.730469 425.648438 592.730469 470.359375 592.730469 592.742188 Z M 677.417969 399.195312 L 724.585938 399.195312 C 718.960938 426.761719 694.535156 447.582031 665.324219 447.582031 L 618.15625 447.582031 C 623.769531 420.011719 648.207031 399.195312 677.417969 399.195312 Z M 677.417969 399.195312 " fill-opacity="1" fill-rule="nonzero"/></svg>